PathFileType	4	(x/y/z)	S06_SL_Cal_T01
DataRate	CameraRate	NumFrames	NumMarkers	Units	OrigDataRate	OrigDataStartFrame	OrigNumFrames
240	240	7	51	mm	240	1200	2399
Frame#	Time	Sternum			R.Acromium			L.Acromium			Top.Head			R.ASIS			L.ASIS			R.PSIS			L.PSIS			R.Great.Tro			L.Great.Tro			R.Iliac.Crest			L.Iliac.Crest			V.Sacral			R.Thigh.Upper.Post			R.Thigh.Lower.Ant			R.Thigh.Lower.Post			R.Thigh.Upper.Ant			R.Knee.Lat			R.Knee.Med			R.Shank.Upper.Post			R.Shank.Lower.Ant			R.Shank.Lower.Post			R.Shank.Upper.Ant			R.Ankle.Lat			R.Ankle.Med			R.Heel.Upper			R.Heel.Med			R.Heel.Lat			R.Toe.Lat			R.Toe.Med			R.Toe.Tip			L.Thigh.Upper.Post			L.Thigh.Lower.Ant			L.Thigh.Lower.Post			L.Thigh.Upper.Ant			L.Knee.Lat			L.Knee.Med			L.Shank.Upper.Post			L.Shank.Lower.Ant			L.Shank.Lower.Post			L.Shank.Upper.Ant			L.Ankle.Lat			L.Ankle.Med			L.Heel.Upper			L.Heel.Med			L.Heel.Lat			L.Toe.Lat			L.Toe.Med			L.Toe.Tip			Cervical.Spine			Back			
		X1	Y1	Z1	X2	Y2	Z2	X3	Y3	Z3	X4	Y4	Z4	X5	Y5	Z5	X6	Y6	Z6	X7	Y7	Z7	X8	Y8	Z8	X9	Y9	Z9	X10	Y10	Z10	X11	Y11	Z11	X12	Y12	Z12	X13	Y13	Z13	X14	Y14	Z14	X15	Y15	Z15	X16	Y16	Z16	X17	Y17	Z17	X18	Y18	Z18	X19	Y19	Z19	X20	Y20	Z20	X21	Y21	Z21	X22	Y22	Z22	X23	Y23	Z23	X24	Y24	Z24	X25	Y25	Z25	X26	Y26	Z26	X27	Y27	Z27	X28	Y28	Z28	X29	Y29	Z29	X30	Y30	Z30	X31	Y31	Z31	X32	Y32	Z32	X33	Y33	Z33	X34	Y34	Z34	X35	Y35	Z35	X36	Y36	Z36	X37	Y37	Z37	X38	Y38	Z38	X39	Y39	Z39	X40	Y40	Z40	X41	Y41	Z41	X42	Y42	Z42	X43	Y43	Z43	X44	Y44	Z44	X45	Y45	Z45	X46	Y46	Z46	X47	Y47	Z47	X48	Y48	Z48	X49	Y49	Z49	X50	Y50	Z50	X51	Y51	Z51	

1200	4.9958	750.72	1314.2	317.12	606.11	1542.4	466.98	615.11	1534.8	147.87	666.38	1828.4	310.03	719.43	1066.3	442.36	727.18	1059.8	189.34	521.78	1083.8	343.33	523.16	1087.1	263.17	657.42	1001.1	491.65	629.58	995.4	135.54	632.64	1142.1	470.49	656.83	1134.9	151.13	508.87	1050.4	306.15	637.08	752.78	497.59	686.77	668.03	468.23	618.96	666.18	482.06	709	755.94	481.07	630.83	552.76	476.7	637.29	545.17	349.88	567.63	327.86	494.37	624.6	259.84	480.41	560.03	250.37	485.62	632.86	335.59	488.94	587.45	111.94	472.26	605.5	112.07	385.31	522.29	74.078	428.72	531.07	43.349	397.9	528.9	42.8	463.46	704.48	36.375	507.04	734.34	44.577	387.5	799.68	54.618	436.37	664.86	733.97	130.44	712.49	646.28	177.8	641.66	646.53	142.6	729.85	739.28	163.04	619.73	551.1	152.01	655.59	543.08	269.71	559.17	326.22	143.94	620.48	262.44	133.96	552.94	254.22	153.64	623.94	333.97	129.36	589.59	111.54	136.75	606.62	108.92	225.55	518.72	72.93	179.37	525.44	46.122	211.72	522.28	47.242	149.71	697.42	45.811	98.925	727.6	43.524	216.32	795.33	55.561	157.49	563.76	1559.5	308.59	517.27	1291.1	310.24
1201	5	750.71	1314.2	317.14	606.09	1542.4	466.99	614.98	1534.8	147.9	666.38	1828.4	310.05	719.41	1066.3	442.38	727.16	1059.8	189.36	521.76	1083.8	343.34	523.14	1087.1	263.19	657.39	1001.1	491.66	629.56	995.4	135.56	632.61	1142.1	470.51	656.82	1134.9	151.15	508.85	1050.4	306.17	637.06	752.77	497.61	686.75	668.03	468.25	618.94	666.18	482.07	708.98	755.94	481.09	630.82	552.76	476.71	637.27	545.17	349.89	567.62	327.86	494.38	624.59	259.84	480.41	560.02	250.37	485.63	632.86	335.59	488.94	587.45	111.94	472.27	605.5	112.07	385.31	522.29	74.077	428.72	531.07	43.348	397.9	528.9	42.797	463.46	704.48	36.375	507.04	734.34	44.58	387.51	799.68	54.622	436.37	664.84	733.97	130.46	712.48	646.28	177.81	641.65	646.53	142.61	729.83	739.28	163.06	619.72	551.1	152.02	655.58	543.08	269.72	559.16	326.22	143.95	620.47	262.44	133.96	552.93	254.22	153.64	623.94	333.97	129.36	589.59	111.54	136.75	606.62	108.91	225.55	518.73	72.933	179.37	525.44	46.122	211.72	522.28	47.244	149.71	697.42	45.811	98.926	727.61	43.524	216.32	795.33	55.562	157.49	563.76	1559.5	308.6	517.28	1291.1	310.25
1202	5.0042	750.7	1314.2	317.15	606.08	1542.4	467	614.89	1534.8	147.93	666.37	1828.4	310.06	719.39	1066.3	442.4	727.15	1059.8	189.37	521.73	1083.8	343.35	523.12	1087.1	263.2	657.37	1001.1	491.68	629.54	995.4	135.57	632.59	1142.1	470.53	656.81	1134.9	151.16	508.83	1050.4	306.19	637.04	752.77	497.62	686.73	668.03	468.26	618.93	666.18	482.08	708.96	755.94	481.1	630.81	552.75	476.72	637.26	545.17	349.91	567.62	327.86	494.39	624.59	259.84	480.42	560.02	250.36	485.64	632.85	335.59	488.94	587.46	111.94	472.27	605.5	112.07	385.31	522.28	74.075	428.72	531.07	43.346	397.9	528.9	42.795	463.46	704.48	36.376	507.04	734.34	44.583	387.51	799.68	54.626	436.37	664.83	733.97	130.47	712.47	646.28	177.82	641.63	646.53	142.62	729.81	739.28	163.07	619.71	551.1	152.02	655.57	543.08	269.73	559.15	326.22	143.96	620.47	262.45	133.97	552.93	254.22	153.64	623.93	333.97	129.37	589.59	111.54	136.75	606.62	108.91	225.55	518.74	72.935	179.37	525.44	46.122	211.72	522.28	47.245	149.71	697.42	45.812	98.926	727.61	43.524	216.32	795.33	55.564	157.49	563.76	1559.5	308.61	517.29	1291.1	310.26
1203	5.0083	750.69	1314.2	317.17	606.06	1542.4	467.01	614.82	1534.8	147.96	666.37	1828.4	310.07	719.36	1066.3	442.42	727.13	1059.8	189.39	521.71	1083.8	343.36	523.1	1087.1	263.22	657.35	1001.1	491.69	629.53	995.4	135.59	632.56	1142.1	470.54	656.79	1134.9	151.18	508.81	1050.4	306.2	637.03	752.77	497.63	686.71	668.03	468.27	618.91	666.18	482.09	708.94	755.94	481.12	630.8	552.75	476.73	637.25	545.17	349.92	567.62	327.87	494.4	624.58	259.84	480.42	560.01	250.36	485.64	632.84	335.59	488.95	587.46	111.93	472.27	605.49	112.06	385.32	522.28	74.073	428.72	531.07	43.344	397.9	528.9	42.793	463.46	704.48	36.377	507.04	734.34	44.586	387.51	799.67	54.631	436.37	664.81	733.97	130.48	712.45	646.28	177.83	641.62	646.52	142.63	729.8	739.28	163.07	619.7	551.1	152.03	655.56	543.08	269.74	559.15	326.22	143.96	620.47	262.45	133.97	552.93	254.22	153.64	623.92	333.97	129.37	589.59	111.54	136.76	606.62	108.91	225.55	518.74	72.936	179.37	525.44	46.122	211.73	522.28	47.245	149.71	697.42	45.812	98.927	727.61	43.523	216.32	795.33	55.566	157.49	563.76	1559.5	308.63	517.29	1291.1	310.28
1204	5.0125	750.68	1314.2	317.19	606.05	1542.4	467.02	614.78	1534.8	147.98	666.36	1828.4	310.08	719.34	1066.3	442.44	727.11	1059.8	189.41	521.69	1083.8	343.38	523.08	1087.2	263.23	657.33	1001.1	491.71	629.51	995.4	135.6	632.54	1142.1	470.56	656.78	1134.8	151.2	508.79	1050.4	306.22	637.01	752.77	497.64	686.7	668.03	468.29	618.9	666.18	482.1	708.93	755.94	481.13	630.79	552.75	476.74	637.23	545.17	349.93	567.61	327.87	494.41	624.58	259.84	480.43	560	250.35	485.65	632.83	335.58	488.95	587.46	111.93	472.28	605.49	112.06	385.32	522.28	74.071	428.72	531.07	43.343	397.9	528.89	42.79	463.46	704.48	36.378	507.04	734.34	44.589	387.51	799.67	54.635	436.37	664.8	733.97	130.49	712.44	646.28	177.83	641.6	646.52	142.64	729.78	739.28	163.08	619.69	551.1	152.04	655.56	543.08	269.74	559.14	326.21	143.97	620.46	262.45	133.97	552.92	254.22	153.65	623.92	333.97	129.38	589.59	111.54	136.76	606.62	108.91	225.55	518.75	72.936	179.37	525.44	46.122	211.73	522.28	47.245	149.71	697.42	45.812	98.927	727.61	43.522	216.32	795.34	55.569	157.48	563.76	1559.5	308.64	517.3	1291.1	310.29
1205	5.0167	750.67	1314.1	317.2	606.04	1542.4	467.03	614.76	1534.8	148	666.35	1828.4	310.09	719.32	1066.3	442.45	727.09	1059.8	189.43	521.67	1083.8	343.39	523.06	1087.2	263.25	657.31	1001.1	491.72	629.49	995.4	135.62	632.51	1142.1	470.58	656.77	1134.8	151.22	508.77	1050.4	306.24	637	752.77	497.65	686.68	668.03	468.3	618.88	666.18	482.12	708.91	755.94	481.14	630.79	552.75	476.75	637.22	545.18	349.94	567.61	327.87	494.42	624.57	259.84	480.43	559.99	250.34	485.66	632.82	335.58	488.96	587.46	111.93	472.28	605.49	112.06	385.33	522.28	74.07	428.73	531.06	43.341	397.9	528.89	42.788	463.46	704.47	36.379	507.04	734.34	44.592	387.51	799.67	54.639	436.37	664.78	733.97	130.5	712.43	646.28	177.84	641.59	646.52	142.65	729.76	739.28	163.09	619.68	551.1	152.05	655.55	543.08	269.75	559.14	326.21	143.97	620.46	262.45	133.98	552.92	254.22	153.65	623.91	333.97	129.38	589.59	111.54	136.76	606.62	108.91	225.55	518.75	72.936	179.37	525.43	46.122	211.73	522.28	47.244	149.71	697.42	45.813	98.927	727.61	43.521	216.32	795.34	55.572	157.48	563.76	1559.5	308.65	517.31	1291.1	310.3
1206	5.0208	750.66	1314.1	317.22	606.02	1542.4	467.04	614.76	1534.8	148.01	666.35	1828.4	310.09	719.29	1066.3	442.47	727.07	1059.8	189.45	521.65	1083.8	343.4	523.04	1087.2	263.26	657.29	1001.1	491.74	629.47	995.4	135.63	632.49	1142.1	470.6	656.76	1134.8	151.23	508.76	1050.4	306.25	636.98	752.77	497.67	686.67	668.03	468.31	618.87	666.18	482.13	708.9	755.94	481.16	630.78	552.75	476.76	637.21	545.18	349.95	567.6	327.87	494.43	624.57	259.84	480.43	559.99	250.34	485.67	632.82	335.58	488.96	587.46	111.93	472.29	605.48	112.05	385.33	522.28	74.068	428.73	531.06	43.339	397.9	528.89	42.786	463.46	704.47	36.379	507.04	734.34	44.595	387.51	799.67	54.643	436.37	664.76	733.97	130.52	712.41	646.28	177.85	641.57	646.52	142.66	729.75	739.28	163.1	619.67	551.1	152.06	655.54	543.08	269.76	559.13	326.21	143.98	620.45	262.45	133.98	552.92	254.22	153.65	623.91	333.97	129.39	589.59	111.54	136.76	606.62	108.91	225.55	518.75	72.936	179.37	525.43	46.122	211.73	522.28	47.243	149.71	697.42	45.814	98.927	727.61	43.519	216.32	795.34	55.574	157.48	563.75	1559.5	308.66	517.31	1291.2	310.31
